# File produced by Open Asset Import Library (http://www.assimp.sf.net)
# (assimp v5.0.1588609223)

mtllib result.mtl

# 80 vertex positions
v  1 2 -0.089795314
v  -1 2 -0.089795314
v  -1 2 0.063801251
v  1 2 0.063801251
v  -1 1 0.063801251
v  -1 1 -0.089795314
v  1 1 -0.089795314
v  1 1 0.063801251
v  1 0 -0.089795314
v  -1 0 -0.089795314
v  -1 0.85000002 -0.089795314
v  1 0.85000002 -0.089795314
v  -1 0.85000002 0.082423173
v  -0.96755779 0.85000002 0.091512665
v  -1 0.85000002 0.087406188
v  -0.96755779 0.85000002 0.084914677
v  -1 1 0.1015377
v  -1 0.85000002 0.1015377
v  1 1 0.1015377
v  1 0.85000002 0.1015377
v  1 0 0.084914677
v  1 0.85000002 0.084914677
v  -0.96755779 0.032442212 0.091512665
v  -1 0 0.082423173
v  -0.886931 0.032442212 0.091512665
v  -0.88916099 0.85000002 0.091512665
v  -0.79792899 0.024094462 0.091512665
v  -0.80018175 0.85000002 0.091512665
v  -0.84837091 0.85000002 0.084914677
v  -0.84605241 0 0.083989479
v  -0.72199953 0.024094462 0.091512665
v  -0.72199947 0.85000002 0.091512665
v  -0.56565255 0.85000002 0.091512665
v  -0.56565255 0.028738201 0.091512665
v  -0.50817615 0 0.084914677
v  -0.50817615 0.85000002 0.084914677
v  -0.6450724 0.028738201 0.091512665
v  -0.64507234 0.85000002 0.091512665
v  -0.70254874 0.85000002 0.084914677
v  -0.7025488 0 0.083811156
v  -0.45430657 0.85000002 0.084914677
v  -0.45430657 0 0.084914677
v  -0.42422256 0.015042007 0.091512665
v  -0.42422256 0.85000002 0.091512665
v  -0.29490221 0 0.084914677
v  -0.32498622 0.015042007 0.091512665
v  -0.32498622 0.85000002 0.091512665
v  -0.29490221 0.85000002 0.084914677
v  -0.17187366 0.85000002 0.084914677
v  -0.16967452 0 0.084914677
v  -0.14278325 0.01346302 0.091512665
v  -0.14494756 0.85000002 0.091512665
v  0.0096649425 0 0.084914677
v  -0.017261077 0.01346302 0.091512665
v  -0.017261047 0.85000002 0.091512665
v  0.0096649723 0.85000002 0.084914677
v  0.11852934 0.85000002 0.084914677
v  0.11852934 0 0.084914677
v  0.14834985 0.014910281 0.091512665
v  0.14834985 0.85000002 0.091512665
v  0.2783339 0 0.084914677
v  0.2485134 0.014910281 0.091512665
v  0.2485134 0.85000002 0.091512665
v  0.2783339 0.85000002 0.084914677
v  0.38274732 0.85000002 0.084914677
v  0.38274732 0 0.084914677
v  0.43873051 0.027991593 0.093360096
v  0.43873051 0.85000002 0.093360096
v  0.5860458 0 0.084914677
v  0.53006262 0.027991593 0.093360096
v  0.53006262 0.85000002 0.093360096
v  0.5860458 0.85000002 0.084914677
v  0.69457108 0.85000002 0.084914677
v  0.69457108 0 0.084914677
v  0.73089939 0.018164158 0.093360096
v  0.73089939 0.85000002 0.093360096
v  0.87453175 0 0.084914677
v  0.83820343 0.018164158 0.093360096
v  0.83820343 0.85000002 0.093360096
v  0.87453175 0.85000002 0.084914677

# 200 UV coordinates
vt 0.625 0.5 0
vt 0.875 0.5 0
vt 0.875 0.75 0
vt 0.625 0.75 0
vt 0.5 0 0
vt 0.625 0 0
vt 0.625 0.25 0
vt 0.5 0.25 0
vt 0.5 0.5 0
vt 0.5 0.75 0
vt 0.30977201 0 0
vt 0.30977196 0.61954391 0
vt 0.04646581 0.61954391 0
vt 0.046465855 0 0
vt 1.3540562e-08 0.61954391 0
vt 6.0314825e-08 0 0
vt 0.0068593021 0.0035632849 0
vt 0.0077276402 0.012043059 0
vt 0.072131157 0.14988291 0
vt 0 0 0
vt 0.82784259 0.49884081 0
vt 0.82171369 0.49884039 0
vt 0.82171369 0.40062064 0
vt 0.82784259 0.40062106 0
vt 0.88284969 0.74463838 0
vt 0.88284969 0 0
vt 0.92931551 3.1590462e-06 0
vt 0.92931545 0.74464148 0
vt 0.84010053 0.4823401 0
vt 0.8339715 0.4823401 0
vt 0.83397162 0.40062064 0
vt 0.84010053 0.40062064 0
vt 0.3637715 0.66080147 0
vt 0.3637715 0.91080147 0
vt 0.57307792 0.6717698 0
vt 0.57307798 0.00010818243 0
vt 0.83638382 0 0
vt 0.83638382 0.67166156 0
vt 0.75357592 0.40063435 0
vt 0.78698111 0.40062064 0
vt 0.78698289 0.40563101 0
vt 0.75225216 0.40564525 0
vt 0.78698289 0.49296153 0
vt 0.75225216 0.49297577 0
vt 0.78224313 0.52638096 0
vt 0.78233421 0.49297577 0
vt 0.78553748 0.49297577 0
vt 0.78553748 0.52638096 0
vt 0.48124999 0.75 0
vt 0.48124999 1 0
vt 0.79586542 0.52297211 0
vt 0.79632115 0.48922884 0
vt 0.80026257 0.48927778 0
vt 0.80026257 0.52401161 0
vt 0.84010053 0.43436694 0
vt 0.84329498 0.40062064 0
vt 0.84320295 0.43436694 0
vt 0.82634795 0.50518423 0
vt 0.82634795 0.49884081 0
vt 0.83072221 0.49996126 0
vt 0.83114481 0.50322843 0
vt 0.80847156 0.48922884 0
vt 0.80892837 0.52263087 0
vt 0.80464697 0.52401805 0
vt 0.80464697 0.48928368 0
vt 0.83797574 0.48234046 0
vt 0.83797574 0.51589698 0
vt 0.8339715 0.51707089 0
vt 0.74622154 0.51589227 0
vt 0.74676216 0.4823401 0
vt 0.75081813 0.48240393 0
vt 0.75081813 0.51713943 0
vt 0.82626116 0.51511061 0
vt 0.82626116 0.50714743 0
vt 0.83010197 0.50922662 0
vt 0.83033562 0.51246321 0
vt 0.83797574 0.51589662 0
vt 0.83797574 0.4823401 0
vt 0.84122074 0.4823401 0
vt 0.84122074 0.51589662 0
vt 0.82626116 0.52011311 0
vt 0.82631016 0.51701111 0
vt 0.8304615 0.51511061 0
vt 0.8304615 0.5209747 0
vt 0.81678998 0.48922884 0
vt 0.81734037 0.52297062 0
vt 0.81319463 0.52402294 0
vt 0.81319463 0.4892875 0
vt 0.76002467 0.49297577 0
vt 0.76002467 0.5277065 0
vt 0.75630689 0.52709204 0
vt 0.75630689 0.49297589 0
vt 0.8338958 0.50714743 0
vt 0.8338958 0.51366055 0
vt 0.83033562 0.5124321 0
vt 0.83033562 0.50837737 0
vt 0.76744926 0.49297583 0
vt 0.76744926 0.52709198 0
vt 0.76373923 0.5277065 0
vt 0.76373923 0.49297577 0
vt 0.84010053 0.46909767 0
vt 0.84230161 0.43436694 0
vt 0.84230161 0.46909767 0
vt 0.75225216 0.52709192 0
vt 0.75630689 0.49297577 0
vt 0.75630689 0.52709192 0
vt 0.77483523 0.49297577 0
vt 0.77483523 0.52770662 0
vt 0.77115643 0.52715939 0
vt 0.77115643 0.49297863 0
vt 0.82526004 0.5145005 0
vt 0.82526004 0.52182817 0
vt 0.82171369 0.52072906 0
vt 0.82171369 0.51560026 0
vt 0.77851129 0.49297583 0
vt 0.77851129 0.52715647 0
vt 0.77483523 0.52770656 0
vt 0.72173625 0.51707089 0
vt 0.72182608 0.4823401 0
vt 0.72685301 0.4823401 0
vt 0.72685301 0.51707089 0
vt 0.7113924 0.51652074 0
vt 0.7113924 0.4823401 0
vt 0.71660966 0.4823401 0
vt 0.7165212 0.51652074 0
vt 0.76002467 0.5270974 0
vt 0.76002467 0.49297589 0
vt 0.71495152 0.5165208 0
vt 0.71495152 0.52305031 0
vt 0.7113924 0.52183259 0
vt 0.7113924 0.51774001 0
vt 0.77115643 0.49297583 0
vt 0.77115643 0.5270974 0
vt 0.76744926 0.52770656 0
vt 0.76744926 0.49297577 0
vt 0.78698289 0.52395958 0
vt 0.78698289 0.48922884 0
vt 0.79143107 0.48922884 0
vt 0.79143107 0.52395958 0
vt 0.81734037 0.48922884 0
vt 0.82143307 0.48922884 0
vt 0.82143307 0.52335036 0
vt 0.81734037 0.52335036 0
vt 0.73182786 0.4823401 0
vt 0.73182786 0.51707083 0
vt 0.72685301 0.51592815 0
vt 0.72685301 0.48234117 0
vt 0.82634795 0.50714743 0
vt 0.82171369 0.50485927 0
vt 0.82171369 0.50112754 0
vt 0.73676431 0.48234034 0
vt 0.73676431 0.51592737 0
vt 0.73182786 0.51707089 0
vt 0.80892837 0.48922884 0
vt 0.81319463 0.48922884 0
vt 0.81319463 0.52395958 0
vt 0.80892837 0.52395958 0
vt 0.77851129 0.49297577 0
vt 0.78224313 0.49297577 0
vt 0.78224313 0.52656281 0
vt 0.77851129 0.52656281 0
vt 0.74149609 0.4823401 0
vt 0.74149609 0.51707083 0
vt 0.73676431 0.51632875 0
vt 0.73676431 0.48234022 0
vt 0.82626116 0.5145005 0
vt 0.82171369 0.5130173 0
vt 0.82171369 0.50863296 0
vt 0.74622154 0.48234016 0
vt 0.74622154 0.51632875 0
vt 0.74149609 0.51707089 0
vt 0.79586542 0.48922884 0
vt 0.79586542 0.52395958 0
vt 0.80026257 0.48922884 0
vt 0.80464697 0.48922884 0
vt 0.80464697 0.52321744 0
vt 0.80026257 0.52321744 0
vt 0.375 0.25 0
vt 0.375 0.5 0
vt 0.375 0.75 0
vt 0.3514747 0.7029494 0
vt 0.030416243 0.058497608 0
vt 0.005347793 0.0035651922 0
vt 0.1023175 0.20463502 0
vt 0.092216969 0.18443394 0
vt 0.057319313 0.1120562 0
vt 0.3177321 0.63546419 0
vt 0.29738361 0.59476721 0
vt 0.13220583 0.26441169 0
vt 0.25926512 0.51853025 0
vt 0.23968765 0.4793753 0
vt 0.15568602 0.31137204 0
vt 0.18931217 0.37862432 0
vt 0.20972423 0.41944849 0
vt 0.72173625 0.4823401 0
vt 0.71660966 0.51707089 0
vt 0.4745124 0.4293561 0
vt 0.49671981 0.1101231 0
vt 0.91781861 0.10425156 0
vt 0.9058463 0.41383088 0

# 30 vertex normals
vn 0 1 0
vn -1 0 0
vn 1 0 0
vn 0 0 -0.076798283
vn -0.96441215 0 0.020305723
vn 0 0 0.076798283
vn -0.88550133 -0.0058000088 0.035680536
vn -0.024900392 -0.95781505 0.021987693
vn 0.91387749 -0.00039999012 0.031179333
vn 0.83118784 0 0.042699218
vn -0.85059738 -0.0044999858 0.040380411
vn -0.015500036 -0.9554022 0.022647867
vn 0.0024999371 -0.97177559 0.01811626
vn 0.97882217 -0.0018000407 0.015720963
vn -0.94380534 0 0.025381977
vn 0 -0.98500925 0.013247827
vn 0.94380534 0 0.025381977
vn -0.95421684 -0.0025000439 0.022970771
vn 0 -0.98794478 0.011888913
vn 0.95421982 0 0.022970844
vn -0.94471109 0 0.025182452
vn 0 -0.98527193 0.013132133
vn 0.94471109 0 0.025182452
vn -0.89116389 0 0.03484197
vn 0 -0.96909237 0.018945988
vn 0.89116389 0 0.03484197
vn -0.94951999 0 0.024092127
vn 0 -0.98662537 0.012518443
vn 0.94951999 0 0.024092127
vn 0 -1 0

# Mesh 'Cube-0' with 8 faces
g Cube-0
usemtl Material
f  1/1/1 2/2/1 3/3/1
f  1/1/1 3/3/1 4/4/1
f  5/5/2 3/6/2 2/7/2
f  5/5/2 2/7/2 6/8/2
f  7/9/3 1/1/3 4/4/3
f  7/9/3 4/4/3 8/10/3
f  6/8/4 2/7/4 1/1/4
f  6/8/4 1/1/4 7/9/4

# Mesh 'Cube-1' with 6 faces
g Cube-1
usemtl Material.001
f  9/11/4 10/12/4 11/13/4
f  9/11/4 11/13/4 12/14/4
f  12/14/4 11/13/4 6/15/4
f  12/14/4 6/15/4 7/16/4
f  13/17/1 14/18/1 15/19/1
f  14/18/1 16/20/1 15/19/1

# Mesh 'Cube-2' with 106 faces
g Cube-2
usemtl Parquet
f  11/21/3 6/22/3 17/23/3
f  11/21/3 17/23/3 18/24/3
f  7/25/3 19/26/3 20/27/3
f  7/25/3 20/27/3 12/28/3
f  18/29/4 17/30/4 19/31/4
f  18/29/4 19/31/4 20/32/4
f  8/33/1 5/34/1 17/34/1
f  8/33/1 17/34/1 19/33/1
f  9/35/2 21/36/2 22/37/2
f  9/35/2 22/37/2 12/38/2
f  23/39/5 14/40/5 13/41/5
f  23/39/5 13/41/5 24/42/5
f  11/43/2 10/44/2 24/42/2
f  11/43/2 24/42/2 13/41/2
f  25/45/6 26/46/6 14/47/6
f  25/45/6 14/47/6 23/48/6
f  20/49/1 22/20/1 16/20/1
f  16/20/1 15/19/1 18/50/1
f  16/20/1 18/50/1 20/49/1
f  27/51/7 28/52/7 29/53/7
f  27/51/7 29/53/7 30/54/7
f  31/55/6 32/32/6 28/56/6
f  31/55/6 28/56/6 27/57/6
f  24/58/8 30/59/8 25/60/8
f  24/58/8 25/60/8 23/61/8
f  26/62/9 25/63/9 30/64/9
f  26/62/9 30/64/9 29/65/9
f  33/66/10 34/67/10 35/68/10
f  33/66/10 35/68/10 36/30/10
f  37/69/11 38/70/11 39/71/11
f  37/69/11 39/71/11 40/72/11
f  40/73/12 35/74/12 34/75/12
f  40/73/12 34/75/12 37/76/12
f  34/77/6 33/78/6 38/79/6
f  34/77/6 38/79/6 37/80/6
f  31/81/13 27/82/13 30/83/13
f  31/81/13 30/83/13 40/84/13
f  32/85/14 31/86/14 40/87/14
f  32/85/14 40/87/14 39/88/14
f  41/89/15 42/90/15 43/91/15
f  41/89/15 43/91/15 44/92/15
f  42/93/16 45/94/16 46/95/16
f  42/93/16 46/95/16 43/96/16
f  47/97/17 46/98/17 45/99/17
f  47/97/17 45/99/17 48/100/17
f  42/101/6 41/55/6 36/102/6
f  42/101/6 36/102/6 35/103/6
f  46/104/6 47/44/6 44/105/6
f  46/104/6 44/105/6 43/106/6
f  49/107/18 50/108/18 51/109/18
f  49/107/18 51/109/18 52/110/18
f  50/111/19 53/112/19 54/113/19
f  50/111/19 54/113/19 51/114/19
f  55/115/20 54/116/20 53/117/20
f  55/115/20 53/117/20 56/107/20
f  50/118/6 49/119/6 48/120/6
f  50/118/6 48/120/6 45/121/6
f  54/122/6 55/123/6 52/124/6
f  54/122/6 52/124/6 51/125/6
f  57/100/21 58/99/21 59/126/21
f  57/100/21 59/126/21 60/127/21
f  58/128/22 61/129/22 62/130/22
f  58/128/22 62/130/22 59/131/22
f  63/132/23 62/133/23 61/134/23
f  63/132/23 61/134/23 64/135/23
f  58/136/6 57/137/6 56/138/6
f  58/136/6 56/138/6 53/139/6
f  63/140/6 60/141/6 59/142/6
f  63/140/6 59/142/6 62/143/6
f  65/144/24 66/145/24 67/146/24
f  65/144/24 67/146/24 68/147/24
f  66/59/25 69/148/25 70/149/25
f  66/59/25 70/149/25 67/150/25
f  71/151/26 70/152/26 69/153/26
f  71/151/26 69/153/26 72/144/26
f  65/154/6 64/155/6 61/156/6
f  65/154/6 61/156/6 66/157/6
f  71/158/6 68/159/6 67/160/6
f  71/158/6 67/160/6 70/161/6
f  73/162/27 74/163/27 75/164/27
f  73/162/27 75/164/27 76/165/27
f  74/74/28 77/166/28 78/167/28
f  74/74/28 78/167/28 75/168/28
f  79/169/29 78/170/29 77/171/29
f  79/169/29 77/171/29 80/162/29
f  73/138/6 72/172/6 69/173/6
f  73/138/6 69/173/6 74/139/6
f  79/174/6 76/175/6 75/176/6
f  79/174/6 75/176/6 78/177/6
f  10/178/30 9/179/30 21/180/30
f  10/178/30 21/180/30 77/181/30
f  30/182/30 24/183/30 10/178/30
f  42/184/30 35/185/30 40/186/30
f  40/186/30 30/182/30 10/178/30
f  10/178/30 77/181/30 74/187/30
f  10/178/30 74/187/30 69/188/30
f  42/184/30 40/186/30 10/178/30
f  45/189/30 42/184/30 10/178/30
f  10/178/30 69/188/30 66/190/30
f  10/178/30 66/190/30 61/191/30
f  50/192/30 45/189/30 10/178/30
f  53/193/30 50/192/30 10/178/30
f  10/178/30 61/191/30 58/194/30
f  58/194/30 53/193/30 10/178/30
f  22/124/6 80/195/6 77/118/6
f  22/124/6 77/118/6 21/196/6

# Mesh 'Cube-3' with 2 faces
g Cube-3
usemtl Wall paper Mur1
f  8/197/6 4/198/6 3/199/6
f  8/197/6 3/199/6 5/200/6

